M48
; DRILL file {KiCad 7.0.1} date Sat Apr 15 14:42:15 2023
; FORMAT={-:-/ absolute / inch / decimal}
; #@! TF.CreationDate,2023-04-15T14:42:15-07:00
; #@! TF.GenerationSoftware,Kicad,Pcbnew,7.0.1
; #@! TF.FileFunction,MixedPlating,1,2
FMAT,2
INCH
; #@! TA.AperFunction,Plated,PTH,ViaDrill
T1C0.0100
; #@! TA.AperFunction,Plated,PTH,ViaDrill
T2C0.0157
; #@! TA.AperFunction,Plated,PTH,ComponentDrill
T3C0.0394
; #@! TA.AperFunction,NonPlated,NPTH,ComponentDrill
T4C0.1063
%
G90
G05
T1
X2.2835Y-2.5
X2.2835Y-2.7165
X2.3228Y-2.4508
X2.5098Y-2.5591
X2.5689Y-2.4902
X2.5689Y-2.7657
X2.5886Y-2.3425
X2.8051Y-2.4606
T2
X2.3465Y-2.5118
X2.3622Y-2.185
X2.4291Y-2.378
T3
X2.1112Y-2.8543
X2.2112Y-2.8543
X2.3112Y-2.8543
X2.4112Y-2.8543
X2.5112Y-2.8543
X2.6112Y-2.8543
X2.7112Y-2.8543
X2.8112Y-2.8543
T4
X2.0866Y-2.0866
X2.8346Y-2.0866
T0
M30
